<svg width="227" height="227" viewBox="0 0 227 227" fill="none" xmlns="http://www.w3.org/2000/svg">
<g clip-path="url(#clip0_16_51)">
<path d="M155.256 78.3515C145.504 72.1455 133.808 69.1898 122.355 69.6995C93.4976 70.8996 68.2858 92.7305 66.4086 124.09C65.788 135.549 68.41 147.443 74.2635 157.512C80.1912 167.354 89.198 175.071 99.6227 179.993C109.971 184.764 121.738 186.739 133.108 184.949C144.479 183.158 155.153 177.754 163.479 169.95C171.805 162.146 178.083 151.79 180.74 140.623C183.546 129.003 182.278 116.801 177.626 105.746C173.274 94.5391 165.388 84.9324 155.256 78.3515Z" fill="#FF986D"/>
<path d="M188.964 82.6284C186.163 80.0802 182.324 81.0792 179.241 82.4512C175.256 84.2799 171.574 86.3332 167.893 88.7633C167.743 88.8394 167.593 88.9155 167.593 88.9155C167.669 89.0658 167.821 89.3665 167.897 89.5169C167.973 89.6672 168.2 89.7414 168.276 89.8918C168.352 90.0421 168.655 90.2667 168.731 90.417C170.008 89.5816 171.361 88.8966 172.638 88.0612C175.418 86.4646 178.575 84.8661 181.66 83.8709C182.788 83.4885 184.294 83.1041 185.426 83.4752C186.558 83.8463 187.316 84.5961 187.849 85.6485C189.066 88.054 188.553 90.7696 187.207 92.9618C185.713 95.607 183.69 97.9534 181.667 100.3C179.57 102.873 177.397 105.295 175.223 107.718C170.877 112.563 166.378 117.107 161.653 121.577C152.202 130.517 141.918 138.557 131.253 145.846C120.362 153.06 108.864 159.448 97.0589 164.858C91.0434 167.526 85.1021 169.967 78.8582 172.184C76.1502 173.177 73.5925 174.095 70.6561 174.637C68.6237 175.099 66.0622 175.263 64.0983 174.368C63.3428 173.995 62.7376 173.546 62.4332 172.945C61.8204 170.989 61.811 169.105 62.6293 166.99C63.2954 164.575 64.4906 162.459 65.6096 160.193C66.2072 159.135 66.7287 157.926 67.4005 156.642C67.9219 155.433 68.746 154.449 69.4939 153.315C70.1676 152.408 70.6909 151.576 71.3646 150.668C71.1363 150.217 70.8318 149.616 70.6034 149.165C70.3028 149.317 70.0782 149.62 69.7775 149.772C68.276 150.91 67.0771 152.272 65.7278 153.711C64.3785 155.15 63.0292 156.588 62.0586 158.402C61.0119 160.065 60.2678 161.953 59.4475 163.69C57.9574 167.089 56.7736 171.466 59.8031 174.465C60.6366 175.365 61.9231 176.414 63.2818 176.859C64.6406 177.305 66.0735 177.524 67.5046 177.366C70.6694 177.274 73.7542 176.279 76.6887 175.36C80.5252 173.984 84.3617 172.609 88.1983 171.233C95.5688 168.257 102.937 164.904 110.003 161.326C124.36 153.869 137.881 145.134 150.491 134.972C162.95 124.886 174.424 113.6 184.687 101.415C187.009 98.5396 189.858 95.5862 191.122 92.1132C191.934 88.8685 191.462 84.9521 188.964 82.6284Z" fill="black"/>
<path d="M112.999 82.5581C112.846 82.2574 112.544 82.0328 112.241 81.8083C112.015 81.734 111.788 81.6598 111.486 81.4352C111.033 81.2868 110.43 81.2145 109.979 81.4428C109.678 81.5951 109.528 81.6712 109.151 81.6731C108.7 81.9014 108.325 82.2801 107.95 82.6588C107.8 82.7349 107.725 82.9614 107.575 83.0375C107.351 83.3401 107.202 83.793 107.128 84.0195C106.979 84.4724 106.981 84.8492 107.134 85.1498C107.135 85.5266 107.364 85.9777 107.666 86.2022C107.819 86.5029 108.121 86.7275 108.424 86.952C108.65 87.0263 108.877 87.1005 109.179 87.3251C109.632 87.4735 110.235 87.5458 110.686 87.3175C110.987 87.1652 111.137 87.0891 111.514 87.0872C111.965 86.8589 112.34 86.4802 112.715 86.1015C112.865 86.0254 112.94 85.7989 113.09 85.7228C113.315 85.4202 113.463 84.9673 113.537 84.7409C113.686 84.2879 113.684 83.9111 113.532 83.6105C113.303 83.1594 113.151 82.8588 112.999 82.5581Z" fill="#E6EAEC"/>
<path d="M107.933 109.111C104.625 110.785 107.289 116.047 110.597 114.373C114.055 112.622 111.391 107.36 107.933 109.111Z" fill="#E6EAEC"/>
<path d="M134.512 89.6093C131.656 91.0555 133.863 95.4154 136.72 93.9692C139.652 92.6733 137.369 88.1631 134.512 89.6093Z" fill="#E6EAEC"/>
<path d="M145.471 110.882C144.94 110.206 144.109 109.683 143.279 109.536C142.373 109.239 141.62 109.243 140.716 109.323C139.888 109.553 138.986 110.01 138.31 110.541L138.16 110.617C137.484 111.148 136.961 111.979 136.664 112.885C136.367 113.791 136.221 114.621 136.527 115.599C136.833 116.577 137.214 117.329 137.821 118.155C138.352 118.83 139.184 119.354 140.089 119.651C140.995 119.948 141.825 120.094 142.803 119.788C143.781 119.481 144.533 119.101 145.359 118.494C146.035 117.963 146.558 117.131 146.855 116.225C147.152 115.32 147.298 114.49 146.992 113.512L146.916 113.361C146.459 112.459 146.002 111.557 145.471 110.882Z" fill="#E6EAEC"/>
<path d="M121.24 132.783C120.861 132.408 120.332 132.109 119.879 131.961C119.652 131.887 119.276 131.889 119.049 131.814C118.446 131.742 117.919 131.82 117.317 132.124C116.866 132.353 116.566 132.505 116.417 132.958C116.193 133.261 115.968 133.563 115.82 134.016C115.671 134.469 115.673 134.846 115.675 135.223C115.677 135.599 115.755 136.126 115.907 136.427C116.059 136.728 116.136 136.878 116.438 137.103C116.817 137.478 117.346 137.776 117.799 137.925C118.025 137.999 118.402 137.997 118.628 138.071C119.232 138.144 119.759 138.066 120.36 137.761C120.811 137.533 121.112 137.381 121.26 136.928C121.485 136.625 121.709 136.323 121.858 135.87C122.006 135.417 122.004 135.04 122.003 134.663C122.001 134.286 121.848 133.986 121.62 133.535C121.544 133.384 121.392 133.084 121.24 132.783Z" fill="#E6EAEC"/>
<path d="M165.232 129.02C157.565 132.902 163.578 144.779 171.245 140.897C178.913 137.015 172.899 125.138 165.232 129.02Z" fill="#E6EAEC"/>
<path d="M147.696 148.476C147.317 148.101 147.015 147.877 146.562 147.728C146.335 147.654 146.109 147.58 145.882 147.505C145.355 147.583 144.978 147.585 144.527 147.814C144.227 147.966 143.926 148.118 143.701 148.421C143.477 148.723 143.252 149.026 143.178 149.252C142.954 149.555 142.955 149.932 143.108 150.232C143.11 150.609 143.111 150.986 143.414 151.211C143.49 151.361 143.642 151.662 143.869 151.736C144.248 152.111 144.55 152.335 145.003 152.484C145.229 152.558 145.456 152.632 145.682 152.706C146.21 152.628 146.586 152.626 147.037 152.398C147.338 152.246 147.639 152.094 147.863 151.791C148.088 151.488 148.312 151.186 148.387 150.959C148.611 150.657 148.609 150.28 148.457 149.979C148.455 149.603 148.453 149.226 148.151 149.001C147.998 148.701 147.922 148.55 147.696 148.476Z" fill="#E6EAEC"/>
<path d="M163.051 99.7151C162.596 99.1899 162.067 98.8911 161.387 98.6684C161.161 98.5942 160.784 98.5961 160.558 98.5219C159.955 98.4495 159.277 98.6036 158.676 98.9081C158.225 99.1365 157.85 99.5152 157.625 99.8177C157.25 100.196 157.026 100.499 156.953 101.102C156.805 101.555 156.656 102.008 156.734 102.535C156.813 103.062 156.814 103.439 157.043 103.89C157.195 104.191 157.498 104.415 157.65 104.716C158.105 105.241 158.634 105.54 159.313 105.763C159.539 105.837 159.916 105.835 160.143 105.909C160.746 105.982 161.423 105.828 162.025 105.523C162.476 105.295 162.851 104.916 163.075 104.614C163.45 104.235 163.675 103.932 163.747 103.329C163.896 102.876 164.044 102.423 163.966 101.896C163.888 101.369 163.66 100.918 163.431 100.467C163.279 100.166 163.203 100.016 163.051 99.7151Z" fill="#E6EAEC"/>
<path d="M92.5087 114.087C90.2536 115.229 92.0043 118.687 94.2594 117.545C96.5145 116.403 94.7638 112.945 92.5087 114.087Z" fill="#E6EAEC"/>
<path d="M120.307 96.9908C120.004 96.7662 119.702 96.5417 119.475 96.4674C119.249 96.3932 119.098 96.4693 119.022 96.319C118.646 96.3209 118.269 96.3228 117.968 96.475C117.667 96.6272 117.517 96.7034 117.293 97.0059C116.992 97.1582 116.918 97.3846 116.919 97.7614C116.845 97.9879 116.771 98.2143 116.773 98.5911C116.699 98.8176 116.851 99.1183 117.003 99.419C117.079 99.5693 117.155 99.7197 117.232 99.87C117.534 100.095 117.837 100.319 118.063 100.393L118.516 100.542C118.893 100.54 119.27 100.538 119.57 100.386C119.871 100.234 120.021 100.157 120.246 99.8548C120.547 99.7026 120.621 99.4761 120.619 99.0993C120.693 98.8729 120.767 98.6464 120.766 98.2696C120.84 98.0432 120.687 97.7425 120.535 97.4418C120.459 97.2915 120.383 97.1411 120.307 96.9908Z" fill="#E6EAEC"/>
<path d="M135.983 127.207C133.277 128.578 135.332 132.637 138.038 131.267C140.82 130.047 138.689 125.837 135.983 127.207Z" fill="#E6EAEC"/>
<path d="M127.592 166.965C126.758 166.065 125.624 165.317 124.492 164.946C123.888 164.874 123.209 164.651 122.606 164.579C121.249 164.51 120.044 164.742 118.842 165.351C117.94 165.808 117.114 166.415 116.59 167.247C115.991 167.928 115.467 168.76 115.171 169.665C114.874 170.571 114.803 171.551 114.883 172.455C114.813 173.435 115.119 174.413 115.576 175.315C116.031 175.841 116.335 176.442 116.79 176.967C117.623 177.867 118.758 178.615 119.89 178.986C120.493 179.059 121.172 179.281 121.776 179.354C123.133 179.422 124.337 179.19 125.54 178.581C126.442 178.125 127.268 177.518 127.791 176.686C128.391 176.005 128.914 175.173 129.211 174.267C129.508 173.361 129.578 172.381 129.498 171.477C129.569 170.497 129.262 169.519 128.806 168.617C128.351 168.092 127.896 167.567 127.592 166.965Z" fill="#E6EAEC"/>
<path d="M51.2336 133.662L45.3665 135.877L43.8896 141.914L40.097 137.034L33.7695 137.593L37.1341 132.301L34.8449 126.661L40.8813 128.138L45.6846 124.195L46.0175 130.448L51.2336 133.662Z" fill="black"/>
<path d="M131.731 46.0642L123.952 42.6367L116.966 47.1181L117.678 38.8247L111.169 33.4314L119.45 31.5058L122.5 23.7282L126.757 31.0169L135.125 31.5023L129.655 37.8602L131.731 46.0642Z" fill="black"/>
<path d="M211.348 127.959L206.307 129.567L204.825 134.473L201.713 130.193L196.514 130.37L199.658 126.134L197.9 121.169L202.882 122.802L207.162 119.69L207.112 124.815L211.348 127.959Z" fill="black"/>
</g>
<defs>
<clipPath id="clip0_16_51">
<rect width="168.512" height="168.512" fill="white" transform="translate(0 76.1173) rotate(-26.853)"/>
</clipPath>
</defs>
</svg>
