<svg width="53" height="75" viewBox="0 0 53 75" fill="none" xmlns="http://www.w3.org/2000/svg">
<path d="M8.29529 18.8695L0.907227 58.2338L11.6713 35.092L52.0348 37.3365L8.29529 18.8695Z" fill="#002C44"/>
<path d="M1.13477 0.959686C1.13477 0.959686 9.33151 14.9067 8.21663 19.3339L51.65 36.8876C51.6421 36.8876 30.7498 8.00286 1.13477 0.959686Z" fill="#FF7B3A"/>
<path d="M0.577286 58.9923C0.239681 60.2462 17.0414 55.6178 17.0414 55.6178L11.2786 34.6276C11.2786 34.6276 3.55292 48.0174 0.577286 58.9923Z" fill="#FBC949"/>
<path d="M11.2783 34.6276C11.2783 34.6276 19.1767 60.1068 14.7564 74.9052L52.3406 37.2126C52.3406 37.2126 15.2746 33.1261 11.2783 34.6276Z" fill="#F75E28"/>
</svg>
