<?xml version="1.0" encoding="UTF-8"?>
<!DOCTYPE svg PUBLIC "-//W3C//DTD SVG 1.1//EN" "http://www.w3.org/Graphics/SVG/1.1/DTD/svg11.dtd">
<!-- Creator: CorelDRAW 2021 (64-Bit) -->
<svg xmlns="http://www.w3.org/2000/svg" xml:space="preserve" width="3.76433in" height="3.36831in" version="1.1" style="shape-rendering:geometricPrecision; text-rendering:geometricPrecision; image-rendering:optimizeQuality; fill-rule:evenodd; clip-rule:evenodd"
viewBox="0 0 36.16 32.35"
 xmlns:xlink="http://www.w3.org/1999/xlink"
 xmlns:xodm="http://www.corel.com/coreldraw/odm/2003">
 <defs>
  <style type="text/css">
   <![CDATA[
    .fil0 {fill:#1291C8}
    .fil1 {fill:#F9D535}
    .fil3 {fill:#FAFAFA}
    .fil2 {fill:#FEFEFE}
    .fil4 {fill:#FF9999}
   ]]>
  </style>
 </defs>
 <g id="Layer_x0020_1">
  <metadata id="CorelCorpID_0Corel-Layer"/>
  <g id="_1452708602592">
   <path class="fil0" d="M26.12 6.04c0.19,-0.4 0.29,-0.6 0.43,-1.08 0.17,0.09 0.3,0.17 0.5,0.22 -0.12,0.25 -0.07,0.13 -0.25,0.3 -0.22,0.22 -0.13,0.26 -0.68,0.56zm-4.31 -1.44c0.14,0.66 0.46,1.11 0.89,1.56l0.16 0.2c-0.63,-0.27 -1.47,-1.07 -1.76,-1.54l0.7 -0.22zm-0.88 17.11c0,0.52 -0.14,1.99 0.41,2.15 0.46,-0.46 0.47,-1.56 0.7,-2.28 0.12,-0.71 0.86,-4.2 1.12,-4.59l2.2 -0.07c0.31,0.68 0.97,3.71 1.08,4.54 0.18,0.59 0.29,2.24 0.83,2.41 0.36,-0.46 0.31,-1.65 0.3,-2.31l-0.09 -4.67c0.54,-0.05 1.31,-0.11 1.74,-0.34 -0.93,-1.89 -2.44,-6.32 -1.32,-8.57 0.16,-0.33 0.33,-0.5 0.53,-0.79 0.56,-0.78 1.02,-1.68 1.37,-2.59 0.57,-1.46 0.71,-2.86 0.68,-4.56 -0.11,0.06 -1.22,2.12 -1.39,2.4 -0.51,0.86 -1.05,1.57 -1.54,2.28l-0.23 -0.47c-0.25,-0.83 -0.14,-0.96 -0.26,-1.53 -0.13,-0.65 -0.6,-1.11 -0.86,-1.58 0.17,-0.1 0.11,-0.06 0.4,0.01 -0.63,-0.86 -1.77,-0.6 -2.27,-0.55 -0.68,0.07 -1.44,-0.28 -2.44,0.48l0.34 0.07c-0.24,0.53 -0.65,0.87 -0.9,1.55 -0.29,0.81 0.2,1.25 -0.33,2.05 -0.82,-0.62 -2.83,-4.56 -3,-4.72 -0.14,1.59 0.18,3.28 0.7,4.64 0.25,0.65 0.55,1.25 0.86,1.78 0.3,0.51 0.87,1.23 1.04,1.6 1.12,2.38 -0.48,6.55 -1.35,8.5 0.19,0.12 0.57,0.15 0.84,0.2 0.4,0.07 0.56,0.07 0.91,0.2l-0.11 4.78z"/>
   <path class="fil1" d="M16.34 24.4c0.3,-0.73 -0.12,-5.31 -0.19,-6.43 -0.15,-2.18 -0.31,-4.4 -0.32,-6.59 -0.02,-2.71 0.77,-3.27 1.5,-5.4 0.56,-1.63 0.97,-4.02 0.5,-5.88 -0.1,0.25 -0.22,0.93 -0.31,1.25 -0.32,1.11 -0.88,2.35 -1.5,3.26 -0.65,0.97 -2.15,2.84 -3.02,3.38 0.15,-1.1 0.18,-1.74 -0.24,-2.7 -0.18,-0.4 -0.34,-0.66 -0.6,-0.99 -0.31,-0.38 -0.39,-0.42 -0.77,-0.74 0.28,-0.19 0.68,-0.22 1.03,-0.31 -0.58,-0.48 -1.8,-0.65 -2.63,-0.39 -0.94,0.29 -1.37,0.82 -1.91,1.36l0.1 -0.64c-0.41,0.23 -0.7,1.01 -0.66,1.73 0.04,0.66 0.21,1.39 0.47,1.92 0.28,0.59 0.63,1 1.03,1.35 0.24,0.21 0.37,0.33 0.68,0.51l0.79 0.36c0.01,-0.01 0.03,0.02 0.05,0.03 -1.57,0.51 -2.73,1.12 -4.6,1.36 -2.18,0.28 -4.94,-0.09 -5.73,0.02 0.18,0.22 0.74,0.55 1.04,0.72 2.11,1.1 5.31,1.3 7.67,1.21 0.87,-0.03 2.18,-0.49 1.72,1.38 -0.47,1.89 -0.83,3.83 -1.4,5.66 -0.28,0.91 -0.54,1.78 -0.86,2.64 -0.2,0.55 -0.87,2.06 -0.88,2.56 0.27,-0.01 0.62,-0.42 0.78,-0.61 0.22,-0.25 0.46,-0.47 0.66,-0.73 0.5,-0.65 0.59,-0.63 1.22,-1.55 0.76,-1.12 2,-3.13 3.11,-3.83 1.28,-0.8 1.59,1 1.83,1.96 0.22,0.91 0.62,2.34 0.94,3.23 0.07,0.19 0.13,0.36 0.19,0.53 0.11,0.28 0.1,0.3 0.31,0.37z"/>
   <path class="fil2" d="M22.04 22.5c1.54,-0.1 2.84,-0.17 4.4,-0.13 -0.11,-0.84 -0.77,-3.86 -1.08,-4.54l-2.2 0.07c-0.26,0.39 -1.01,3.89 -1.12,4.59z"/>
   <path class="fil3" d="M21.11 5.75c0.29,0.47 1.13,1.27 1.76,1.54l-0.16 -0.2c-0.43,-0.46 -0.76,-0.9 -0.89,-1.56l-0.7 0.22z"/>
   <path class="fil3" d="M26.12 6.97c0.55,-0.3 0.45,-0.34 0.68,-0.56 0.17,-0.17 0.12,-0.05 0.25,-0.3 -0.19,-0.05 -0.32,-0.14 -0.5,-0.22 -0.14,0.47 -0.24,0.68 -0.43,1.08z"/>
   <path class="fil4" d="M19.33 22.53c7.52,0.23 13.88,3.83 16.83,8.87 -3.57,-4.02 -9.64,-6.75 -16.64,-6.97 -8.17,-0.25 -15.41,2.99 -19.06,7.92 2.88,-5.96 10.34,-10.09 18.87,-9.83z"/>
  </g>
 </g>
</svg>
